<mxfile host="app.diagrams.net" modified="2023-11-29T09:08:21.218Z" agent="Mozilla/5.0 (Macintosh; Intel Mac OS X 10_15_7) AppleWebKit/537.36 (KHTML, like Gecko) Chrome/119.0.0.0 Safari/537.36" etag="bEYffZZIeb1lQuoc9j3n" version="22.1.4" type="device">
  <diagram name="Page-1" id="2YBvvXClWsGukQMizWep">
    <mxGraphModel dx="896" dy="622" grid="1" gridSize="10" guides="1" tooltips="1" connect="1" arrows="1" fold="1" page="1" pageScale="1" pageWidth="850" pageHeight="1100" math="0" shadow="0">
      <root>
        <mxCell id="0" />
        <mxCell id="1" parent="0" />
        <mxCell id="P9vbLbW0i9mO5QJtbJ1Z-1" style="edgeStyle=elbowEdgeStyle;rounded=0;orthogonalLoop=1;jettySize=auto;html=1;elbow=vertical;curved=0;" parent="1" source="O33Dg_AS-0g0KVgm5leG-6" target="O33Dg_AS-0g0KVgm5leG-10" edge="1">
          <mxGeometry relative="1" as="geometry">
            <Array as="points">
              <mxPoint x="280" y="190" />
            </Array>
          </mxGeometry>
        </mxCell>
        <mxCell id="P9vbLbW0i9mO5QJtbJ1Z-2" value="Resident selects Activate option&lt;br&gt;present in VC detailed view&lt;br&gt;or through kebab popup opened after&lt;br&gt;three dots" style="edgeLabel;html=1;align=center;verticalAlign=middle;resizable=0;points=[];" parent="P9vbLbW0i9mO5QJtbJ1Z-1" vertex="1" connectable="0">
          <mxGeometry x="-0.1404" y="-3" relative="1" as="geometry">
            <mxPoint as="offset" />
          </mxGeometry>
        </mxCell>
        <mxCell id="P9vbLbW0i9mO5QJtbJ1Z-9" value="OTP entered" style="edgeStyle=elbowEdgeStyle;rounded=0;orthogonalLoop=1;jettySize=auto;html=1;elbow=vertical;curved=0;" parent="1" source="O33Dg_AS-0g0KVgm5leG-6" target="O33Dg_AS-0g0KVgm5leG-10" edge="1">
          <mxGeometry x="-0.1747" relative="1" as="geometry">
            <Array as="points">
              <mxPoint x="270" y="340" />
            </Array>
            <mxPoint x="1" as="offset" />
          </mxGeometry>
        </mxCell>
        <mxCell id="O33Dg_AS-0g0KVgm5leG-6" value="" style="shape=umlLifeline;perimeter=lifelinePerimeter;whiteSpace=wrap;html=1;container=1;dropTarget=0;collapsible=0;recursiveResize=0;outlineConnect=0;portConstraint=eastwest;newEdgeStyle={&quot;edgeStyle&quot;:&quot;elbowEdgeStyle&quot;,&quot;elbow&quot;:&quot;vertical&quot;,&quot;curved&quot;:0,&quot;rounded&quot;:0};participant=umlActor;fontStyle=0" parent="1" vertex="1">
          <mxGeometry x="100" y="50" width="20" height="510" as="geometry" />
        </mxCell>
        <mxCell id="O33Dg_AS-0g0KVgm5leG-8" value="User" style="text;html=1;align=center;verticalAlign=middle;resizable=0;points=[];autosize=1;strokeColor=none;fillColor=none;" parent="1" vertex="1">
          <mxGeometry x="85" y="20" width="50" height="30" as="geometry" />
        </mxCell>
        <mxCell id="P9vbLbW0i9mO5QJtbJ1Z-3" style="edgeStyle=elbowEdgeStyle;rounded=0;orthogonalLoop=1;jettySize=auto;html=1;elbow=vertical;curved=0;" parent="1" source="O33Dg_AS-0g0KVgm5leG-10" target="O33Dg_AS-0g0KVgm5leG-20" edge="1">
          <mxGeometry relative="1" as="geometry">
            <Array as="points">
              <mxPoint x="610" y="230" />
            </Array>
          </mxGeometry>
        </mxCell>
        <mxCell id="P9vbLbW0i9mO5QJtbJ1Z-4" value="Calls&amp;nbsp;/binding-otp API to send otp to resident&lt;br&gt;via email or SMS" style="edgeLabel;html=1;align=center;verticalAlign=middle;resizable=0;points=[];" parent="P9vbLbW0i9mO5QJtbJ1Z-3" vertex="1" connectable="0">
          <mxGeometry x="-0.2633" y="1" relative="1" as="geometry">
            <mxPoint x="26" y="1" as="offset" />
          </mxGeometry>
        </mxCell>
        <mxCell id="P9vbLbW0i9mO5QJtbJ1Z-7" style="edgeStyle=elbowEdgeStyle;rounded=1;orthogonalLoop=1;jettySize=auto;html=1;elbow=horizontal;curved=0;endArrow=open;endSize=12;dashed=1;" parent="1" source="O33Dg_AS-0g0KVgm5leG-10" target="O33Dg_AS-0g0KVgm5leG-6" edge="1">
          <mxGeometry relative="1" as="geometry">
            <Array as="points">
              <mxPoint x="190" y="310" />
            </Array>
          </mxGeometry>
        </mxCell>
        <mxCell id="P9vbLbW0i9mO5QJtbJ1Z-8" value="Asks to enter OTP" style="edgeLabel;html=1;align=center;verticalAlign=middle;resizable=0;points=[];" parent="P9vbLbW0i9mO5QJtbJ1Z-7" vertex="1" connectable="0">
          <mxGeometry x="0.161" relative="1" as="geometry">
            <mxPoint x="1" as="offset" />
          </mxGeometry>
        </mxCell>
        <mxCell id="P9vbLbW0i9mO5QJtbJ1Z-10" value="Calls&amp;nbsp;/wallet-binding API to&amp;nbsp;&lt;br&gt;bind the vc with wallet id" style="edgeStyle=elbowEdgeStyle;rounded=0;orthogonalLoop=1;jettySize=auto;html=1;elbow=vertical;curved=0;" parent="1" source="O33Dg_AS-0g0KVgm5leG-10" target="O33Dg_AS-0g0KVgm5leG-20" edge="1">
          <mxGeometry relative="1" as="geometry">
            <Array as="points">
              <mxPoint x="480" y="360" />
            </Array>
          </mxGeometry>
        </mxCell>
        <mxCell id="P9vbLbW0i9mO5QJtbJ1Z-15" value="Shows green Activated symbol for the VC" style="edgeStyle=elbowEdgeStyle;rounded=0;orthogonalLoop=1;jettySize=auto;html=1;elbow=horizontal;curved=0;" parent="1" edge="1">
          <mxGeometry relative="1" as="geometry">
            <Array as="points">
              <mxPoint x="210" y="530" />
            </Array>
            <mxPoint x="401.5" y="530" as="sourcePoint" />
            <mxPoint x="109.5" y="530" as="targetPoint" />
          </mxGeometry>
        </mxCell>
        <mxCell id="O33Dg_AS-0g0KVgm5leG-10" value="INJI App" style="shape=umlLifeline;perimeter=lifelinePerimeter;whiteSpace=wrap;html=1;container=1;dropTarget=0;collapsible=0;recursiveResize=0;outlineConnect=0;portConstraint=eastwest;newEdgeStyle={&quot;edgeStyle&quot;:&quot;elbowEdgeStyle&quot;,&quot;elbow&quot;:&quot;vertical&quot;,&quot;curved&quot;:0,&quot;rounded&quot;:0};participant=process;verticalAlign=middle;strokeColor=default;shadow=0;dashed=0;strokeWidth=2;labelBackgroundColor=#ffffff;fillColor=default;fontColor=default;sketch=0;gradientColor=none;fontStyle=0;rounded=1;" parent="1" vertex="1">
          <mxGeometry x="360" y="50" width="85" height="510" as="geometry" />
        </mxCell>
        <mxCell id="P9vbLbW0i9mO5QJtbJ1Z-5" style="edgeStyle=elbowEdgeStyle;rounded=1;orthogonalLoop=1;jettySize=auto;html=1;elbow=vertical;curved=0;endArrow=open;endSize=12;dashed=1;" parent="1" source="O33Dg_AS-0g0KVgm5leG-20" target="O33Dg_AS-0g0KVgm5leG-6" edge="1">
          <mxGeometry relative="1" as="geometry">
            <Array as="points">
              <mxPoint x="210" y="270" />
            </Array>
          </mxGeometry>
        </mxCell>
        <mxCell id="P9vbLbW0i9mO5QJtbJ1Z-6" value="Sends OTP" style="edgeLabel;html=1;align=center;verticalAlign=middle;resizable=0;points=[];" parent="P9vbLbW0i9mO5QJtbJ1Z-5" vertex="1" connectable="0">
          <mxGeometry x="-0.1369" y="1" relative="1" as="geometry">
            <mxPoint x="42" as="offset" />
          </mxGeometry>
        </mxCell>
        <mxCell id="O33Dg_AS-0g0KVgm5leG-20" value="Mobile App Backend&lt;br&gt;(MIMOTO)" style="shape=umlLifeline;perimeter=lifelinePerimeter;whiteSpace=wrap;html=1;container=1;dropTarget=0;collapsible=0;recursiveResize=0;outlineConnect=0;portConstraint=eastwest;newEdgeStyle={&quot;edgeStyle&quot;:&quot;elbowEdgeStyle&quot;,&quot;elbow&quot;:&quot;vertical&quot;,&quot;curved&quot;:0,&quot;rounded&quot;:0};" parent="1" vertex="1">
          <mxGeometry x="710" y="50" width="100" height="510" as="geometry" />
        </mxCell>
        <mxCell id="P9vbLbW0i9mO5QJtbJ1Z-14" value="Stores -&lt;br&gt;- wallet id in secure storage&lt;br&gt;- certificate in key store&lt;br&gt;- store thumbprint in key store" style="html=1;align=left;spacingLeft=2;endArrow=block;rounded=0;edgeStyle=orthogonalEdgeStyle;curved=0;rounded=0;" parent="1" target="O33Dg_AS-0g0KVgm5leG-10" edge="1">
          <mxGeometry x="0.0032" relative="1" as="geometry">
            <mxPoint x="400" y="430" as="sourcePoint" />
            <Array as="points">
              <mxPoint x="460" y="430" />
              <mxPoint x="460" y="470" />
            </Array>
            <mxPoint x="480" y="510" as="targetPoint" />
            <mxPoint as="offset" />
          </mxGeometry>
        </mxCell>
        <mxCell id="b7yrb6rM1qhOUMGjui_Y-1" style="edgeStyle=elbowEdgeStyle;rounded=1;orthogonalLoop=1;jettySize=auto;html=1;elbow=vertical;curved=0;endArrow=open;endSize=12;dashed=1;" edge="1" parent="1">
          <mxGeometry relative="1" as="geometry">
            <Array as="points">
              <mxPoint x="500" y="400" />
            </Array>
            <mxPoint x="760" y="400" as="sourcePoint" />
            <mxPoint x="400" y="400" as="targetPoint" />
          </mxGeometry>
        </mxCell>
        <mxCell id="b7yrb6rM1qhOUMGjui_Y-2" value="Sends wallet id along with certificate" style="edgeLabel;html=1;align=center;verticalAlign=middle;resizable=0;points=[];" vertex="1" connectable="0" parent="b7yrb6rM1qhOUMGjui_Y-1">
          <mxGeometry x="-0.1369" y="1" relative="1" as="geometry">
            <mxPoint x="-5" as="offset" />
          </mxGeometry>
        </mxCell>
      </root>
    </mxGraphModel>
  </diagram>
</mxfile>
